<svg width="36" height="34" viewBox="0 0 36 34" fill="none" xmlns="http://www.w3.org/2000/svg">
<path fill-rule="evenodd" clip-rule="evenodd" d="M5.75 4.35C4.63259 4.35 4 5.14349 4 5.8V10.45H12.75H32V5.8C32 5.14349 31.3674 4.35 30.25 4.35H5.75ZM11 13.95H4V28.2C4 28.8565 4.63259 29.65 5.75 29.65H11V13.95ZM14.5 29.65V13.95H32V28.2C32 28.8565 31.3674 29.65 30.25 29.65H14.5ZM12.75 33.15H5.75C3.00141 33.15 0.5 31.0781 0.5 28.2V12.2V5.8C0.5 2.92189 3.00141 0.850002 5.75 0.850002H30.25C32.9986 0.850002 35.5 2.92189 35.5 5.8V12.2V28.2C35.5 31.0781 32.9986 33.15 30.25 33.15H12.75Z" fill="#6C5CE7"/>
</svg>

