<svg width="24" height="24" viewBox="0 0 24 24" fill="none" xmlns="http://www.w3.org/2000/svg">
<path fill-rule="evenodd" clip-rule="evenodd" d="M17.9863 0.885002C20.3989 2.18942 21.8817 4.86825 23.0322 8.71456C24.184 12.5408 24.4037 15.5831 23.0917 17.9961C21.7814 20.4059 19.1052 21.8889 15.2827 23.0397C11.4561 24.1917 8.41364 24.4115 6.00049 23.0994C3.59069 21.7892 2.10769 19.113 0.956876 15.2904C-0.195151 11.4639 -0.414962 8.42137 0.897141 6.00823C2.20742 3.59843 4.88361 2.11543 8.70614 0.964614C12.5291 -0.186317 15.5721 -0.420267 17.9863 0.885002ZM17.0351 2.64432C15.3617 1.73959 12.9998 1.76064 9.2827 2.87971C5.56524 3.99889 3.56642 5.28589 2.6542 6.96359C1.74381 8.63795 1.754 11.0004 2.87197 14.7139C3.99115 18.4313 5.27815 20.4302 6.95586 21.3424C8.63021 22.2528 10.9927 22.2426 14.7061 21.1246C18.4236 20.0054 20.4224 18.7184 21.3346 17.0407C22.245 15.3664 22.2348 13.0039 21.1169 9.29044L21.1164 9.2887C19.9969 5.54557 18.7098 3.54978 17.0351 2.64432ZM12.239 5.0466C12.7612 4.86684 13.3303 5.14445 13.51 5.66666L14.1617 7.55973L16.0589 6.90664C16.5811 6.72688 17.1502 7.00449 17.3299 7.5267C17.5097 8.04892 17.2321 8.61798 16.7099 8.79774L14.8126 9.45082L15.7859 12.2782L17.6789 11.6266C18.2011 11.4469 18.7702 11.7245 18.9499 12.2467C19.1297 12.7689 18.8521 13.3379 18.3299 13.5177L16.4369 14.1693L17.09 16.0667C17.2698 16.5889 16.9922 17.1579 16.47 17.3377C15.9477 17.5175 15.3787 17.2398 15.1989 16.7176L14.5458 14.8203L11.7183 15.7936L12.3699 17.6867C12.5497 18.2089 12.2721 18.7779 11.7499 18.9577C11.2277 19.1374 10.6586 18.8598 10.4788 18.3376L9.8272 16.4446L7.92988 17.0977C7.40767 17.2775 6.83861 16.9999 6.65884 16.4776C6.47908 15.9554 6.75669 15.3864 7.2789 15.2066L9.17622 14.5535L8.20294 11.7261L6.30988 12.3777C5.78767 12.5575 5.21861 12.2799 5.03885 11.7577C4.85909 11.2355 5.1367 10.6664 5.65891 10.4866L7.55197 9.835L6.89883 7.93763C6.71907 7.41541 6.99668 6.84635 7.5189 6.66659C8.04111 6.48683 8.61017 6.76444 8.78993 7.28665L9.44306 9.18402L12.2706 8.2107L11.6189 6.31763C11.4392 5.79542 11.7168 5.22636 12.239 5.0466ZM11.0673 13.9025L13.8948 12.9292L12.9216 10.1018L10.094 11.0751L11.0673 13.9025Z" fill="#6C5CE7"/>
</svg>
